<svg width="100" height="100" viewBox="0 0 100 100" fill="none" xmlns="http://www.w3.org/2000/svg">
<path d="M50 0C22.3856 0 0 22.3856 0 50C0 77.6144 22.3856 100 50 100C77.6144 100 100 77.6144 100 50C100 22.3856 77.6144 0 50 0ZM50 24.4522C59.8878 24.4522 67.9333 32.4978 67.9333 42.3856C67.9333 52.2744 59.8878 60.3189 50 60.3189C40.1111 60.3189 32.0667 52.2744 32.0667 42.3856C32.0667 32.4978 40.1111 24.4522 50 24.4522ZM50 93.1589C37.6278 93.1589 26.53 87.7311 18.9367 79.1333C22.4667 72.7444 27.9856 67.4933 34.5478 64.31C36.78 63.2278 39.3856 63.2456 41.6978 64.3556C44.3011 65.6067 47.0944 66.24 50.0011 66.24C52.9067 66.24 55.7011 65.6056 58.3044 64.3556C60.6189 63.2444 63.2244 63.2278 65.4544 64.31C72.0167 67.4922 77.5344 72.7444 81.0644 79.1333C73.47 87.73 62.3722 93.1589 50 93.1589Z" fill="black
" fill-opacity="1"/>
</svg>
